<svg width="24" height="25" viewBox="0 0 24 25" fill="none" xmlns="http://www.w3.org/2000/svg">
<g opacity="0.7">
<rect y="0.59375" width="24" height="24" rx="2" fill="url(#paint0_linear_0_1857)"/>
<g clip-path="url(#clip0_0_1857)">
<path d="M17.7931 9.75878C17.6635 9.11423 17.3406 8.52449 16.8673 8.06812C16.3941 7.61175 15.793 7.31042 15.1441 7.20428C14.6567 7.12657 14.1578 7.16263 13.6866 7.30965C13.2153 7.45667 12.7845 7.71066 12.4276 8.05178C12.3115 8.15979 12.1588 8.21984 12.0001 8.21984C11.8415 8.21984 11.6888 8.15979 11.5726 8.05178C10.9802 7.47876 10.1898 7.15608 9.36556 7.15082C8.54137 7.14556 7.74685 7.45812 7.14716 8.02353C6.54747 8.58894 6.18873 9.36371 6.14552 10.1868C6.10231 11.0099 6.37795 11.8179 6.91515 12.443L11.3521 17.7305C11.4316 17.825 11.5307 17.901 11.6426 17.9531C11.7544 18.0052 11.8764 18.0322 11.9998 18.0322C12.1232 18.0322 12.2451 18.0052 12.357 17.9531C12.4689 17.901 12.568 17.825 12.6474 17.7305L17.0844 12.443C17.3982 12.0788 17.625 11.6481 17.7478 11.1833C17.8706 10.7185 17.8861 10.2319 17.7931 9.76028V9.75878Z" fill="white"/>
</g>
</g>
<defs>
<linearGradient id="paint0_linear_0_1857" x1="0" y1="0.59375" x2="24" y2="24.5938" gradientUnits="userSpaceOnUse">
<stop stop-color="#450AF5"/>
<stop offset="1" stop-color="#C4EFD9"/>
</linearGradient>
<clipPath id="clip0_0_1857">
<rect width="12" height="12" fill="white" transform="translate(6 6.59375)"/>
</clipPath>
</defs>
</svg>
