<svg width="19" height="19" viewBox="0 0 19 19" fill="none" xmlns="http://www.w3.org/2000/svg">
<path d="M9.68228 3.25386C9.53769 3.19131 9.37908 3.16824 9.22266 3.18701C9.06624 3.20578 8.9176 3.26572 8.79191 3.3607L4.53596 6.72629H1.28612C1.04998 6.72629 0.82351 6.8201 0.656534 6.98707C0.489558 7.15405 0.395752 7.38052 0.395752 7.61666V12.9589C0.395752 13.195 0.489558 13.4215 0.656534 13.5884C0.82351 13.7554 1.04998 13.8492 1.28612 13.8492H4.53596L8.74739 17.2148C8.90404 17.3405 9.09859 17.4095 9.29942 17.4107C9.43241 17.4129 9.5639 17.3823 9.68228 17.3217C9.83379 17.2495 9.96183 17.136 10.0516 16.9942C10.1414 16.8524 10.1893 16.6881 10.1898 16.5203V4.05519C10.1893 3.88737 10.1414 3.7231 10.0516 3.58132C9.96183 3.43954 9.83379 3.32602 9.68228 3.25386ZM8.40905 14.6684L5.39961 12.2644C5.24296 12.1387 5.04842 12.0697 4.84759 12.0685H2.17649V8.50703H4.84759C5.04842 8.50586 5.24296 8.43683 5.39961 8.31114L8.40905 5.90715V14.6684ZM16.3422 10.2878L17.9449 8.694C18.0279 8.61099 18.0938 8.51243 18.1387 8.40397C18.1836 8.2955 18.2067 8.17924 18.2067 8.06184C18.2067 7.94444 18.1836 7.82818 18.1387 7.71972C18.0938 7.61125 18.0279 7.5127 17.9449 7.42968C17.8619 7.34666 17.7633 7.28081 17.6548 7.23588C17.5464 7.19096 17.4301 7.16783 17.3127 7.16783C17.1953 7.16783 17.0791 7.19096 16.9706 7.23588C16.8621 7.28081 16.7636 7.34666 16.6806 7.42968L15.0868 9.03234L13.493 7.42968C13.3254 7.26202 13.098 7.16783 12.8609 7.16783C12.6238 7.16783 12.3964 7.26202 12.2287 7.42968C12.0611 7.59734 11.9669 7.82474 11.9669 8.06184C11.9669 8.29895 12.0611 8.52634 12.2287 8.694L13.8314 10.2878L12.2287 11.8815C12.1453 11.9643 12.079 12.0628 12.0338 12.1713C11.9886 12.2798 11.9654 12.3961 11.9654 12.5137C11.9654 12.6312 11.9886 12.7476 12.0338 12.8561C12.079 12.9646 12.1453 13.0631 12.2287 13.1458C12.3115 13.2293 12.41 13.2955 12.5185 13.3407C12.627 13.3859 12.7433 13.4092 12.8609 13.4092C12.9784 13.4092 13.0948 13.3859 13.2033 13.3407C13.3118 13.2955 13.4103 13.2293 13.493 13.1458L15.0868 11.5432L16.6806 13.1458C16.7633 13.2293 16.8618 13.2955 16.9703 13.3407C17.0788 13.3859 17.1952 13.4092 17.3127 13.4092C17.4303 13.4092 17.5466 13.3859 17.6551 13.3407C17.7636 13.2955 17.8621 13.2293 17.9449 13.1458C18.0283 13.0631 18.0946 12.9646 18.1398 12.8561C18.185 12.7476 18.2083 12.6312 18.2083 12.5137C18.2083 12.3961 18.185 12.2798 18.1398 12.1713C18.0946 12.0628 18.0283 11.9643 17.9449 11.8815L16.3422 10.2878Z" fill="white" fill-opacity="0.698"/>
</svg>
