<svg width="19" height="19" viewBox="0 0 19 19" fill="none" xmlns="http://www.w3.org/2000/svg">
<path d="M9.86965 3.25386C9.72506 3.19131 9.56646 3.16824 9.41004 3.18701C9.25362 3.20578 9.10498 3.26571 8.97929 3.3607L4.7234 6.72626H1.47361C1.23747 6.72626 1.011 6.82006 0.844031 6.98704C0.677057 7.15401 0.583252 7.38048 0.583252 7.61661V12.9588C0.583252 13.1949 0.677057 13.4214 0.844031 13.5883C1.011 13.7553 1.23747 13.8491 1.47361 13.8491H4.7234L8.93478 17.2147C9.09143 17.3404 9.28596 17.4094 9.4868 17.4106C9.61979 17.4127 9.75127 17.3822 9.86965 17.3215C10.0212 17.2494 10.1492 17.1358 10.239 16.9941C10.3288 16.8523 10.3767 16.688 10.3772 16.5202V4.05518C10.3767 3.88736 10.3288 3.72309 10.239 3.58131C10.1492 3.43954 10.0212 3.32602 9.86965 3.25386ZM8.59644 14.6683L5.58704 12.2643C5.4304 12.1386 5.23586 12.0696 5.03502 12.0684H2.36396V8.50697H5.03502C5.23586 8.50581 5.4304 8.43678 5.58704 8.31109L8.59644 5.90713V14.6683ZM16.3069 5.24826C16.1393 5.0806 15.9119 4.98642 15.6748 4.98642C15.4377 4.98642 15.2103 5.0806 15.0426 5.24826C14.875 5.41592 14.7808 5.64331 14.7808 5.88042C14.7808 6.11752 14.875 6.34491 15.0426 6.51257C15.5669 7.03605 15.9766 7.66285 16.2456 8.35317C16.5146 9.04348 16.6371 9.7822 16.6053 10.5224C16.5735 11.2626 16.388 11.9881 16.0608 12.6528C15.7335 13.3174 15.2715 13.9068 14.7043 14.3833C14.5665 14.5011 14.468 14.6582 14.4218 14.8335C14.3757 15.0088 14.3842 15.194 14.4461 15.3643C14.5081 15.5347 14.6205 15.6821 14.7685 15.7868C14.9165 15.8915 15.0928 15.9486 15.2741 15.9504C15.4821 15.9508 15.6837 15.8783 15.8439 15.7456C16.6016 15.111 17.2189 14.3257 17.6566 13.4397C18.0943 12.5536 18.3428 11.5862 18.3863 10.5988C18.4299 9.61153 18.2675 8.62596 17.9095 7.7048C17.5515 6.78364 17.0057 5.94706 16.3069 5.24826ZM13.7872 7.76798C13.7042 7.68496 13.6056 7.61911 13.4972 7.57418C13.3887 7.52925 13.2725 7.50613 13.1551 7.50613C13.0377 7.50613 12.9214 7.52925 12.8129 7.57418C12.7045 7.61911 12.6059 7.68496 12.5229 7.76798C12.4399 7.85099 12.374 7.94954 12.3291 8.05801C12.2842 8.16648 12.2611 8.28273 12.2611 8.40013C12.2611 8.51753 12.2842 8.63378 12.3291 8.74225C12.374 8.85071 12.4399 8.94927 12.5229 9.03228C12.8573 9.3647 13.0462 9.81618 13.0482 10.2877C13.0484 10.5471 12.992 10.8034 12.8828 11.0387C12.7736 11.274 12.6143 11.4826 12.4161 11.6499C12.3259 11.7247 12.2514 11.8165 12.1968 11.9201C12.1421 12.0237 12.1085 12.137 12.0977 12.2536C12.087 12.3702 12.0993 12.4878 12.1341 12.5997C12.1689 12.7115 12.2253 12.8154 12.3003 12.9053C12.3757 12.9949 12.468 13.0686 12.5719 13.1224C12.6758 13.1763 12.7893 13.2091 12.9059 13.219C13.0225 13.2289 13.1399 13.2158 13.2514 13.1803C13.3629 13.1448 13.4663 13.0877 13.5557 13.0122C13.9538 12.6784 14.2741 12.2616 14.494 11.7909C14.7139 11.3203 14.8283 10.8072 14.8289 10.2877C14.8239 9.34401 14.45 8.43971 13.7872 7.76798Z" fill="white" fill-opacity="0.698"/>
</svg>
